<?xml version="1.0" standalone="no"?>
<!DOCTYPE svg PUBLIC "-//W3C//DTD SVG 20010904//EN"
 "http://www.w3.org/TR/2001/REC-SVG-20010904/DTD/svg10.dtd">
<svg version="1.0" xmlns="http://www.w3.org/2000/svg"
 width="797.000000pt" height="797.000000pt" viewBox="0 0 797.000000 797.000000"
 preserveAspectRatio="xMidYMid meet">
<metadata>
Created by potrace 1.11, written by Peter Selinger 2001-2013
</metadata>
<g transform="translate(0.000000,797.000000) scale(0.100000,-0.100000)"
fill="#000000" stroke="none">
<path d="M5653 4649 c-17 -6 -18 -31 -18 -560 l0 -554 65 0 65 0 5 225 c4 188
8 230 22 257 26 47 73 76 133 81 63 5 102 -13 142 -65 l28 -36 2 -206 c1 -113
2 -218 2 -233 1 -28 2 -28 65 -28 59 0 65 2 68 23 2 12 1 121 -2 242 -5 197
-7 225 -26 265 -38 80 -113 143 -188 159 -62 12 -153 4 -196 -18 -22 -11 -43
-21 -45 -21 -3 0 -5 106 -5 235 0 181 -3 235 -12 236 -7 0 -30 2 -50 3 -20 1
-45 -1 -55 -5z"/>
<path d="M6493 4511 c-39 -10 -63 -38 -63 -74 0 -68 83 -103 128 -54 50 53 3
146 -65 128z"/>
<path d="M6833 4392 c-21 -3 -23 -8 -23 -77 0 -81 -2 -83 -67 -80 -32 2 -44
-2 -47 -14 -4 -13 -2 -86 3 -113 0 -5 26 -8 56 -8 l55 0 0 -204 c0 -209 5
-245 43 -300 25 -35 89 -65 139 -66 45 0 118 27 118 44 0 7 -14 31 -32 55 -28
39 -34 43 -65 38 -33 -6 -62 10 -64 36 -4 37 -4 374 -1 385 2 7 22 12 47 12
67 0 71 3 68 66 -1 31 -5 59 -8 63 -4 3 -23 7 -43 7 -21 1 -44 2 -52 3 -12 1
-15 15 -15 72 1 38 -2 72 -7 75 -10 6 -76 10 -105 6z"/>
<path d="M4496 4232 c-3 -5 8 -44 24 -88 25 -70 57 -160 184 -519 l31 -90 51
-3 51 -3 78 231 c42 127 78 230 80 228 1 -2 28 -82 60 -178 32 -96 67 -199 77
-227 l19 -53 49 0 c36 0 50 4 55 18 38 96 235 664 235 678 0 11 -16 14 -69 14
l-68 0 -58 -167 c-32 -93 -67 -193 -78 -223 l-20 -55 -72 220 -71 220 -59 0
-60 0 -66 -200 c-37 -110 -70 -209 -73 -220 -6 -20 -20 15 -113 285 -51 149
-43 140 -118 140 -35 0 -66 -4 -69 -8z"/>
<path d="M6448 4229 c-8 -5 -11 -106 -10 -336 0 -180 1 -336 1 -345 1 -15 11
-18 66 -18 45 0 65 4 66 13 3 58 -1 680 -5 684 -7 8 -106 9 -118 2z"/>
<path d="M7481 4228 c-295 -44 -390 -445 -148 -625 63 -48 109 -65 187 -70 89
-6 158 12 227 58 49 34 103 97 97 113 -2 6 -27 24 -56 40 l-51 29 -19 -27
c-25 -33 -93 -73 -138 -80 -61 -9 -129 12 -176 56 -44 40 -55 64 -31 65 24 1
172 15 197 18 14 2 70 7 125 10 55 4 118 10 140 14 l40 6 -2 69 c-8 204 -189
354 -392 324z m153 -153 c38 -18 96 -85 96 -112 0 -9 -14 -13 -42 -14 -24 0
-50 -2 -58 -3 -8 -2 -55 -7 -105 -10 -49 -4 -113 -9 -142 -12 l-52 -5 8 29
c17 59 57 105 116 135 39 20 129 16 179 -8z"/>
<path d="M1385 4210 c-20 -7 -20 -16 -20 -341 l0 -334 38 -3 c25 -2 37 1 38
10 1 7 2 110 3 228 1 188 4 220 20 253 56 113 207 146 298 64 68 -61 72 -76
72 -327 l1 -225 38 -3 39 -3 -4 243 c-3 229 -4 245 -25 285 -50 92 -136 145
-238 146 -65 1 -141 -26 -183 -65 l-22 -22 2 43 c3 36 -1 45 -17 51 -11 4 -29
4 -40 0z"/>
<path d="M3005 4207 c-95 -16 -151 -86 -143 -178 8 -75 55 -120 188 -179 30
-13 74 -39 98 -58 38 -30 42 -38 42 -77 0 -52 -21 -81 -73 -99 -54 -18 -122
-11 -186 20 l-53 26 -26 -26 c-26 -25 -26 -26 -7 -41 59 -45 109 -60 200 -60
77 0 96 3 133 25 115 65 120 220 10 300 -23 18 -59 39 -80 47 -138 56 -185 98
-174 158 14 73 126 99 221 51 49 -25 50 -25 69 -7 25 25 16 46 -32 70 -53 27
-128 39 -187 28z"/>
<path d="M3519 4203 c-83 -21 -129 -75 -129 -152 0 -87 31 -122 175 -193 134
-66 161 -92 157 -152 -5 -65 -51 -97 -141 -99 -44 -1 -71 5 -115 27 l-57 28
-25 -23 c-22 -20 -23 -24 -9 -39 9 -10 36 -28 62 -41 62 -32 206 -35 266 -5
60 30 91 85 91 162 1 91 -27 122 -175 196 -121 61 -159 93 -159 134 0 88 127
123 235 65 36 -19 40 -19 57 -4 27 25 22 40 -24 67 -60 35 -142 46 -209 29z"/>
<path d="M27 4203 c-3 -4 8 -42 24 -83 15 -41 70 -190 122 -330 l94 -255 35
-3 35 -3 35 98 c20 54 75 203 122 332 47 128 86 237 86 242 0 14 -66 11 -77
-3 -6 -7 -13 -22 -16 -33 -2 -11 -18 -56 -35 -100 -118 -318 -147 -393 -152
-389 -3 3 -48 123 -101 267 l-97 262 -35 3 c-19 2 -37 -1 -40 -5z"/>
<path d="M810 4191 c-102 -36 -135 -74 -86 -101 21 -11 31 -9 81 15 41 21 72
28 114 28 108 1 166 -50 173 -152 l3 -44 -110 -2 c-252 -4 -363 -103 -314
-280 39 -140 289 -171 402 -49 15 15 28 26 31 24 2 -3 6 -25 8 -50 3 -44 4
-45 42 -48 l38 -3 -6 63 c-4 35 -9 144 -11 243 -3 99 -10 200 -17 225 -15 57
-78 121 -136 138 -55 17 -155 13 -212 -7z m268 -330 c21 -1 22 -4 18 -51 -12
-123 -110 -212 -224 -204 -89 7 -127 37 -135 107 -13 114 95 161 341 148z"/>
<path d="M2282 4195 c-73 -22 -147 -89 -186 -165 -31 -60 -38 -93 -37 -167 2
-126 76 -245 189 -300 50 -24 69 -28 147 -28 77 0 98 4 147 27 58 27 151 113
145 133 -2 5 -15 17 -30 25 -25 14 -28 13 -66 -26 -101 -106 -248 -116 -359
-26 -39 31 -93 115 -81 126 4 4 78 12 194 21 39 3 88 8 110 10 22 2 81 7 130
10 135 10 128 5 123 85 -6 79 -34 135 -99 198 -60 60 -120 84 -209 88 -42 1
-94 -4 -118 -11z m199 -81 c56 -18 111 -72 138 -137 l21 -48 -23 -8 c-12 -5
-67 -12 -122 -16 -55 -4 -109 -8 -121 -10 -11 -2 -65 -6 -120 -10 -54 -4 -102
-9 -106 -12 -18 -10 -11 62 12 113 29 67 96 124 170 144 33 9 95 2 151 -16z"/>
<path d="M4065 4194 c-105 -35 -141 -77 -91 -104 21 -11 31 -9 79 14 41 21 71
28 120 28 107 2 160 -46 171 -152 l4 -45 -86 2 c-156 3 -270 -34 -324 -108
-28 -38 -35 -128 -13 -184 30 -79 98 -115 212 -112 84 3 133 22 188 72 32 30
32 29 37 -30 4 -38 5 -40 42 -43 l39 -3 -7 68 c-4 37 -9 145 -11 238 -3 94
-10 191 -16 217 -15 65 -67 122 -128 143 -58 19 -157 18 -216 -1z m264 -333
c23 -1 23 -4 18 -50 -15 -123 -100 -203 -216 -204 -60 0 -114 21 -130 52 -17
32 -19 89 -3 121 31 65 135 90 331 81z"/>
</g>
</svg>
